<svg width="56" height="56" viewBox="0 0 56 56" fill="none" xmlns="http://www.w3.org/2000/svg">
<path fill-rule="evenodd" clip-rule="evenodd" d="M27.9664 1.7407H28.0211C42.5231 1.7407 54.2794 13.4971 54.2794 27.9997C54.2794 42.5024 42.5231 54.2582 28.0211 54.2582H27.9664C13.4642 54.2582 1.70805 42.5024 1.70805 27.9997C1.70805 13.4971 13.4642 1.7407 27.9664 1.7407Z" fill="#151515"/>
<path fill-rule="evenodd" clip-rule="evenodd" d="M30.4104 15.4304C28.6208 15.4304 27.1884 15.9648 26.1129 17.0325C25.037 18.1011 24.4994 19.6039 24.4994 21.5421V24.95H20.5432V29.5766H24.4994V41.4402H29.2468V29.5766H33.1875L33.7926 24.95H29.2468V21.9955C29.2468 21.2452 29.4019 20.6829 29.7123 20.3074C30.0224 19.9327 30.6223 19.7445 31.5118 19.7445H33.9477V15.618C33.11 15.4931 31.9307 15.4304 30.4104 15.4304Z" fill="white"/>
</svg>
