<svg width="56" height="56" viewBox="0 0 56 56" fill="none" xmlns="http://www.w3.org/2000/svg">
<path fill-rule="evenodd" clip-rule="evenodd" d="M27.934 1.7407H27.9887C42.4908 1.7407 54.247 13.4971 54.247 27.9994C54.247 42.502 42.4908 54.2581 27.9887 54.2581H27.934C13.4318 54.2581 1.67563 42.502 1.67563 27.9994C1.67563 13.4971 13.4318 1.7407 27.934 1.7407Z" fill="#151515"/>
<path fill-rule="evenodd" clip-rule="evenodd" d="M27.5148 26.8412C27.7682 26.5074 28.0756 26.1879 28.4377 25.88C28.7997 25.5722 29.1593 25.2341 29.5162 24.8644C29.8729 24.4937 30.178 24.0093 30.4314 23.4103C30.6849 22.8114 30.8115 22.1367 30.8115 21.3856C30.8115 20.448 30.615 19.615 30.222 18.8851C29.8289 18.156 29.2497 17.4627 28.4845 16.8066H30.5168L32.6577 15.4304H26.1728C25.0142 15.4304 23.8895 15.5974 22.7983 15.9306C21.707 16.2643 20.7633 16.7746 19.967 17.4627C19.3154 18.0256 18.8033 18.7079 18.431 19.5107C18.0586 20.3124 17.8725 21.1416 17.8725 21.9955C17.8725 23.5381 18.3972 24.8121 19.4471 25.8173C20.4969 26.8229 21.7873 27.3256 23.318 27.3256C23.5454 27.3256 23.8972 27.3047 24.373 27.2632C24.1559 27.7735 24.0472 28.2162 24.0472 28.5917C24.0472 29.0193 24.1272 29.3998 24.2876 29.7335C24.4479 30.0664 24.6935 30.4524 25.0246 30.8892C22.201 31.0771 20.1116 31.5985 18.7567 32.4521C17.9913 32.932 17.3784 33.5312 16.9183 34.2501C16.458 34.9692 16.2278 35.7505 16.2278 36.5943C16.2278 37.3347 16.4192 38.0175 16.802 38.6417C17.3915 39.6429 18.2783 40.3597 19.4627 40.7916C20.647 41.2241 21.9218 41.4405 23.287 41.4405C24.9316 41.4405 26.4726 41.1411 27.9103 40.5416C29.3478 39.9424 30.4393 39.0071 31.184 37.7358C31.6804 36.8705 31.9287 35.9701 31.9287 35.0314C31.9287 34.219 31.763 33.4786 31.4322 32.8117C31.101 32.1457 30.7029 31.6034 30.2375 31.1864C29.7721 30.7701 29.3041 30.387 28.8335 30.0373C28.3628 29.6891 27.962 29.3338 27.6311 28.9746C27.2999 28.615 27.1347 28.2478 27.1347 27.8729C27.1347 27.5191 27.2612 27.1749 27.5148 26.8412ZM23.3724 25.966C22.9121 25.695 22.5242 25.3462 22.2087 24.919C21.8931 24.4914 21.6243 24.0093 21.402 23.4728C21.1795 22.9357 21.0165 22.3996 20.9133 21.8631C20.8098 21.3263 20.7582 20.8183 20.7582 20.3388C20.7582 19.287 21.0011 18.4529 21.4874 17.8374C21.7457 17.4938 22.0847 17.2205 22.5036 17.0174C22.9225 16.8141 23.3491 16.7119 23.7835 16.7119C24.4452 16.7119 25.0503 16.9257 25.5988 17.3532C26.1468 17.7805 26.5839 18.3195 26.9098 18.971C27.2353 19.6222 27.4862 20.2978 27.6621 20.9958C27.8378 21.6938 27.9258 22.3452 27.9258 22.9494C27.9258 24.0119 27.6517 24.8408 27.1037 25.4342C26.8345 25.7159 26.4931 25.9419 26.0797 26.1145C25.6659 26.2861 25.2625 26.3727 24.8695 26.3727C24.3316 26.3727 23.8324 26.237 23.3724 25.966ZM22.9225 39.7916C22.2759 39.6406 21.6604 39.4111 21.0762 39.1038C20.4918 38.7965 20.0185 38.3634 19.6566 37.8058C19.2945 37.249 19.1137 36.6051 19.1137 35.8754C19.1137 35.2608 19.2532 34.7113 19.5324 34.2268C19.8119 33.7424 20.166 33.354 20.5953 33.0621C21.0244 32.7708 21.5262 32.5311 22.1002 32.3432C22.6742 32.1559 23.23 32.0258 23.768 31.9526C24.3057 31.8797 24.8487 31.8431 25.397 31.8431C25.7279 31.8431 25.9761 31.8529 26.1418 31.8747C26.1728 31.8948 26.3614 32.0304 26.7079 32.2805C27.0543 32.5311 27.2689 32.6871 27.3518 32.7496C27.4345 32.8117 27.6233 32.9634 27.9181 33.2024C28.213 33.4432 28.4119 33.6221 28.5155 33.7424C28.6187 33.8617 28.7714 34.0441 28.973 34.2893C29.1747 34.5341 29.3144 34.7502 29.392 34.9381C29.4695 35.1252 29.5445 35.3445 29.617 35.594C29.6892 35.8444 29.7255 36.1002 29.7255 36.3608C29.7255 37.0067 29.5833 37.574 29.2989 38.0643C29.0142 38.5537 28.6369 38.9345 28.1663 39.2052C27.6955 39.4759 27.1836 39.6783 26.6304 39.8148C26.0769 39.9502 25.5002 40.0179 24.9005 40.0179C24.2281 40.0179 23.5687 39.9424 22.9225 39.7916ZM37.4673 22.9331H35.8384V26.3259H32.5492V28.0134H35.8384V31.4367H37.4673V28.0134H40.7719V26.3259H37.4673V22.9331Z" fill="white"/>
</svg>
