<svg width="56" height="56" viewBox="0 0 56 56" fill="none" xmlns="http://www.w3.org/2000/svg">
<path fill-rule="evenodd" clip-rule="evenodd" d="M27.9992 1.74065H28.0228C42.5184 1.74065 54.2693 13.4921 54.2693 27.9877V28.011C54.2693 42.5066 42.5184 54.2578 28.0228 54.2578H27.9992C13.5036 54.2578 1.75268 42.5066 1.75268 28.011V27.9877C1.75268 13.4921 13.5036 1.74065 27.9992 1.74065Z" fill="#151515"/>
<path fill-rule="evenodd" clip-rule="evenodd" d="M33.1717 17.8744C31.3461 16.8009 29.3525 16.2642 27.1909 16.2642C25.029 16.2642 23.0354 16.8009 21.21 17.8744C19.3843 18.9485 17.9389 20.4046 16.8737 22.2426C15.8082 24.0826 15.2757 26.0911 15.2757 28.2683C15.2757 30.6977 15.9325 32.9008 17.2461 34.8802C18.5595 36.8605 20.2816 38.3247 22.4123 39.273C22.3709 38.1577 22.4381 37.2355 22.6141 36.5053L24.1501 29.9721C23.8914 29.4621 23.7621 28.8263 23.7621 28.0653C23.7621 27.1797 23.9844 26.4396 24.4293 25.8462C24.8738 25.2517 25.4169 24.9551 26.0582 24.9551C26.5755 24.9551 26.9736 25.1268 27.2529 25.4707C27.5323 25.8151 27.6718 26.2468 27.6718 26.7681C27.6718 27.0917 27.6122 27.4844 27.4934 27.9482C27.3744 28.4121 27.2192 28.9486 27.028 29.5576C26.8365 30.1679 26.6994 30.6552 26.6169 31.0195C26.4718 31.655 26.5909 32.1996 26.9736 32.6527C27.3562 33.1067 27.863 33.3329 28.494 33.3329C29.6007 33.3329 30.5083 32.7134 31.2169 31.4726C31.9251 30.2332 32.2796 28.7269 32.2796 26.9558C32.2796 25.5909 31.8425 24.4808 30.9686 23.6266C30.0944 22.7721 28.8765 22.3451 27.315 22.3451C25.5669 22.3451 24.1525 22.91 23.0718 24.0405C21.9909 25.1715 21.4504 26.5233 21.4504 28.0966C21.4504 29.0345 21.7141 29.8214 22.2418 30.4569C22.4175 30.6654 22.4744 30.8894 22.4123 31.1293C22.3915 31.1917 22.3504 31.3477 22.2883 31.5984C22.2262 31.8479 22.1848 32.0099 22.1641 32.0825C22.0812 32.4163 21.8848 32.5203 21.5746 32.3954C20.7781 32.0616 20.173 31.4836 19.7594 30.6599C19.3456 29.8371 19.1388 28.8838 19.1388 27.7998C19.1388 27.1019 19.2498 26.4039 19.4723 25.7051C19.6947 25.0077 20.0411 24.3321 20.5117 23.6809C20.9824 23.0294 21.5461 22.4543 22.203 21.9536C22.8597 21.4531 23.6587 21.0526 24.5999 20.7505C25.5409 20.4478 26.5547 20.2968 27.6408 20.2968C29.1094 20.2968 30.4281 20.625 31.5969 21.2815C32.7656 21.9388 33.6577 22.788 34.2732 23.8299C34.8885 24.8717 35.1963 25.9868 35.1963 27.1742C35.1963 28.7377 34.9273 30.1441 34.3897 31.3956C33.8517 32.6454 33.0914 33.6278 32.1089 34.3414C31.1262 35.0551 30.0092 35.412 28.7579 35.412C28.1269 35.412 27.5374 35.2642 26.9891 34.9665C26.4408 34.6696 26.0634 34.3182 25.8566 33.9115C25.3912 35.7562 25.112 36.855 25.0188 37.209C24.8222 37.9494 24.4188 38.8042 23.8088 39.7729C24.9152 40.1066 26.0427 40.2733 27.1909 40.2733C29.3525 40.2733 31.3461 39.7363 33.1717 38.6631C34.9971 37.5898 36.4427 36.1338 37.508 34.2944C38.5731 32.4555 39.106 30.4464 39.106 28.2683C39.106 26.0911 38.5731 24.0826 37.508 22.2426C36.4427 20.4046 34.9971 18.9485 33.1717 17.8744Z" fill="white"/>
</svg>
