<svg width="54" height="54" viewBox="0 0 54 54" fill="none" xmlns="http://www.w3.org/2000/svg">
<path fill-rule="evenodd" clip-rule="evenodd" d="M26.9321 0.740479H26.9559C41.4514 0.740479 53.2024 12.4922 53.2024 26.9879V27.0111C53.2024 41.5062 41.4514 53.258 26.9559 53.258H26.9321C12.4367 53.258 0.68573 41.5062 0.68573 27.0111V26.9879C0.68573 12.4922 12.4367 0.740479 26.9321 0.740479Z" fill="#151515"/>
<path fill-rule="evenodd" clip-rule="evenodd" d="M36.1355 21.0057C37.2216 20.3499 37.9558 19.4221 38.3387 18.2235C37.3457 18.818 36.2853 19.224 35.1581 19.4425C34.1651 18.3791 32.9447 17.8482 31.4967 17.8482C30.1106 17.8482 28.9291 18.3414 27.9517 19.3257C26.9742 20.3098 26.4855 21.5006 26.4855 22.8968C26.4855 23.2721 26.5267 23.6581 26.6096 24.0534C24.5616 23.95 22.6404 23.4313 20.846 22.4984C19.0513 21.5666 17.5284 20.3231 16.277 18.7709C15.8217 19.5529 15.5943 20.4019 15.5943 21.3185C15.5943 22.1835 15.7959 22.9857 16.1993 23.7261C16.6028 24.4662 17.1458 25.0645 17.8284 25.5231C17.0217 25.4921 16.2665 25.278 15.5633 24.8827V24.9451C15.5633 26.1642 15.9434 27.2348 16.7036 28.1569C17.4638 29.0791 18.4231 29.6598 19.5815 29.9C19.1471 30.0138 18.7073 30.0716 18.2628 30.0716C17.9732 30.0716 17.6578 30.0458 17.3164 29.9935C17.6369 31.0046 18.2265 31.835 19.0851 32.4864C19.9435 33.1376 20.9158 33.474 22.0018 33.4949C20.1812 34.9332 18.1076 35.6521 15.7805 35.6521C15.3356 35.6521 14.9322 35.6312 14.5704 35.5894C16.8975 37.1009 19.4625 37.8558 22.2656 37.8558C24.0443 37.8558 25.7149 37.5726 27.2767 37.0039C28.8384 36.436 30.1727 35.6756 31.2795 34.7218C32.386 33.7688 33.3403 32.6723 34.142 31.4321C34.9433 30.1919 35.5407 28.897 35.9339 27.5476C36.3269 26.1976 36.5235 24.8464 36.5235 23.4911C36.5235 23.1995 36.518 22.9805 36.5079 22.8344C37.4904 22.1161 38.3282 21.2459 39.0212 20.2241C38.0593 20.6415 37.0974 20.9014 36.1355 21.0057Z" fill="white"/>
</svg>
